<svg width="17" height="16" viewBox="0 0 17 16" fill="none" xmlns="http://www.w3.org/2000/svg">
<path d="M9.91923 6.01333L10.5326 6.62667L4.49257 12.6667H3.87923V12.0533L9.91923 6.01333V6.01333ZM12.3192 2C12.1526 2 11.9792 2.06667 11.8526 2.19333L10.6326 3.41333L13.1326 5.91333L14.3526 4.69333C14.4144 4.63166 14.4634 4.5584 14.4969 4.47775C14.5303 4.3971 14.5475 4.31065 14.5475 4.22333C14.5475 4.13602 14.5303 4.04957 14.4969 3.96892C14.4634 3.88827 14.4144 3.81501 14.3526 3.75333L12.7926 2.19333C12.6592 2.06 12.4926 2 12.3192 2V2ZM9.91923 4.12667L2.5459 11.5V14H5.0459L12.4192 6.62667L9.91923 4.12667V4.12667Z" fill="#205F8F"/>
</svg>
